<?xml version="1.0" encoding="UTF-8"?>
<svg id="Layer_1" data-name="Layer 1" xmlns="http://www.w3.org/2000/svg" viewBox="0 0 100 100">
  <defs>
    <style>
      .cls-1 {
        fill: #153e90;
      }

      .cls-2 {
        fill: #fff;
      }

      .cls-3 {
        fill: #54e346;
      }
    </style>
  </defs>
  <rect class="cls-2" width="100" height="100"/>
  <g>
    <polygon class="cls-3" points="100 0 79.23 0 79.23 10.87 89.13 10.87 89.13 20.77 100 20.77 100 0"/>
    <polygon class="cls-1" points="89.13 20.77 89.13 100 0 100 0 10.87 79.23 10.87 79.23 20.77 89.13 20.77"/>
    <polygon class="cls-3" points="59.42 45.53 49.52 45.53 49.52 55.43 49.52 65.34 49.52 75.24 59.42 75.24 69.33 75.24 69.33 65.34 69.33 55.43 69.33 45.53 59.42 45.53"/>
    <polygon class="cls-3" points="29.71 45.53 29.71 45.53 19.81 45.53 19.81 55.43 19.81 65.34 19.81 75.24 29.71 75.24 29.71 75.24 39.61 75.24 39.61 65.34 39.61 55.43 39.61 45.53 29.71 45.53"/>
  </g>
</svg>