<?xml version="1.0" encoding="UTF-8"?>
<svg id="Layer_1" xmlns="http://www.w3.org/2000/svg" version="1.1" viewBox="0 0 60.5 24">
  <!-- Generator: Adobe Illustrator 30.3.0, SVG Export Plug-In . SVG Version: 2.1.3 Build 182)  -->
  <defs>
    <style>
      .st0 {
        fill: #fff;
      }

      .st1 {
        fill: #54e346;
      }
    </style>
  </defs>
  <g>
    <polygon class="st1" points="24 0 24 8 20 8 20 4 16 4 16 0 24 0"/>
    <path class="st0" d="M16,8v8h-8V8h8v-4H4v16h16V8h-4Z"/>
    <rect class="st0" x="0" y="20" width="4" height="4"/>
  </g>
  <g>
    <g>
      <path class="st0" d="M44,18.5v1.5h-7.6v-6.1h1.5v4.5h6.1Z"/>
      <path class="st0" d="M46.2,18.5v-4.5h-1.5s0,6.1,0,6.1h7.6s0-6.1,0-6.1h-1.5v4.5h-4.5Z"/>
      <polygon class="st0" points="60.5 15.5 56.2 18.5 60.5 18.5 60.5 20 52.9 20 52.9 18.9 53.5 18.5 57.9 15.5 57.9 15.5 52.9 15.5 52.9 13.9 60.5 13.9 60.5 15.5 60.5 15.5 60.5 15.5"/>
      <polygon class="st0" points="28 13.9 28 15.5 34.1 15.5 34.1 17 28 17 28 20 29.5 20 29.5 18.5 35.7 18.5 35.7 13.9 28 13.9"/>
    </g>
    <g>
      <path class="st0" d="M36.4,10.1v-6.1h1.5v6.1h-1.5Z"/>
      <polygon class="st0" points="46.3 10.1 44.2 10.1 42.5 8.1 40.7 10.1 38.6 10.1 41.4 7 38.6 4 40.7 4 42.5 5.9 44.2 4 46.3 4 43.5 7 46.3 10.1"/>
      <polygon class="st0" points="48.6 5.5 48.6 6.3 54.7 6.3 54.7 7.8 48.6 7.8 48.6 8.5 54.7 8.5 54.7 10.1 47 10.1 47 4 54.7 4 54.7 5.5 48.6 5.5"/>
      <path class="st0" d="M60.5,8.5v1.5h-5.1v-6.1h1.5v4.5h3.6Z"/>
      <polygon class="st0" points="28 4 28 5.5 34.1 5.5 34.1 7.1 28 7.1 28 10.1 29.5 10.1 29.5 8.6 35.7 8.6 35.7 4 28 4"/>
    </g>
  </g>
</svg>