<?xml version="1.0" encoding="UTF-8"?>
<svg id="Layer_2" data-name="Layer 2" xmlns="http://www.w3.org/2000/svg" viewBox="0 0 2541.48 1008">
  <defs>
    <style>
      .cls-1 {
        fill: #fff;
      }

      .cls-2 {
        fill: #54e346;
      }
    </style>
  </defs>
  <g id="Layer_1-2" data-name="Layer 1-2">
    <g>
      <g>
        <polygon class="cls-2" points="1008 0 1008 336 840 336 840 168 672 168 672 0 1008 0"/>
        <path class="cls-1" d="M672,336v336h-336v-336h336v-168H168v672h672v-504h-168Z"/>
        <rect class="cls-1" y="840" width="168" height="168"/>
      </g>
      <g>
        <g>
          <path class="cls-1" d="M1847.01,776.45v63.55h-317.74v-254.19h63.55v190.65h254.19Z"/>
          <path class="cls-1" d="M1940.17,776.45l-.12-190.65h-63.55v254.19h317.74v-254.19h-63.55l-.12,190.65h-190.4,0Z"/>
          <polygon class="cls-1" points="2540.91 649.55 2359.35 776.45 2541.47 776.45 2541.47 840 2223.73 840 2223.73 793.71 2248.43 776.45 2430 649.55 2430.28 649.35 2223.73 649.35 2223.73 585.8 2541.47 585.8 2541.47 649.35 2541.2 649.35 2540.91 649.55"/>
          <polygon class="cls-1" points="1176 585.8 1176 650.15 1433.42 650.16 1433.42 714.51 1176 714.51 1176 840 1240.36 840 1240.36 778.87 1497.77 778.86 1497.77 585.8 1176 585.8"/>
        </g>
        <g>
          <path class="cls-1" d="M1527.26,422.2v-254.2h64.35v254.2h-64.35Z"/>
          <polygon class="cls-1" points="1945.64 422.2 1858.24 422.2 1783.38 341.74 1708.5 422.2 1621.1 422.2 1739.66 294.78 1621.69 168 1709.09 168 1783.38 247.81 1857.65 168 1945.05 168 1827.07 294.78 1945.64 422.2"/>
          <polygon class="cls-1" points="2039.48 231.55 2039.48 263.32 2296.9 263.32 2296.9 326.87 2039.48 326.87 2039.48 358.65 2296.9 358.65 2296.9 422.2 1975.13 422.2 1975.13 168 2296.9 168 2296.9 231.55 2039.48 231.55"/>
          <path class="cls-1" d="M2541.48,357.84v64.35h-215.09v-254.2h64.35v189.84h150.74Z"/>
          <polygon class="cls-1" points="1176 168 1176 232.36 1433.42 232.36 1433.42 296.71 1176 296.71 1176 422.2 1240.36 422.2 1240.36 361.07 1497.77 361.06 1497.77 168 1176 168"/>
        </g>
      </g>
    </g>
  </g>
</svg>