<?xml version="1.0" encoding="UTF-8"?>
<svg id="Layer_1" data-name="Layer 1" xmlns="http://www.w3.org/2000/svg" viewBox="0 0 20 20">
  <defs>
    <style>
      .cls-1 {
        fill: #153e90;
      }

      .cls-2 {
        fill: #fff;
      }
    </style>
  </defs>
  <polygon class="cls-1" points="20 2.22 20 20 0 20 0 0 17.78 0 17.78 2.22 20 2.22"/>
  <polygon class="cls-2" points="13.61 11.38 13.61 10.48 10 10.48 10 10.48 6.39 10.48 6.39 11.38 5.49 11.38 5.49 14.09 9.1 14.09 9.26 14.09 10 14.09 10 14.09 10.74 14.09 10.9 14.09 14.51 14.09 14.51 11.38 13.61 11.38"/>
  <polygon class="cls-2" points="12.71 6.87 12.71 9.58 7.29 9.58 7.29 6.87 8.2 6.87 8.2 5.97 11.8 5.97 11.8 6.87 12.71 6.87"/>
  <g>
    <g>
      <rect class="cls-2" x="13.12" y="5.91" width="1.82" height=".91"/>
      <polygon class="cls-2" points="15.84 6.82 15.84 9.54 13.12 9.54 13.12 8.63 14.93 8.63 14.93 6.82 15.84 6.82"/>
    </g>
    <rect class="cls-2" x="14.51" y="10.48" width="2.24" height=".91"/>
    <rect class="cls-2" x="15.85" y="12.28" width="2.7" height=".9" transform="translate(4.47 29.93) rotate(-90)"/>
  </g>
  <g>
    <g>
      <rect class="cls-2" x="5.07" y="5.91" width="1.82" height=".91"/>
      <polygon class="cls-2" points="4.16 6.82 4.16 9.54 6.88 9.54 6.88 8.63 5.07 8.63 5.07 6.82 4.16 6.82"/>
    </g>
    <rect class="cls-2" x="3.25" y="10.48" width="2.24" height=".91" transform="translate(8.74 21.86) rotate(-180)"/>
    <rect class="cls-2" x="1.45" y="12.28" width="2.7" height=".9" transform="translate(-9.93 15.53) rotate(-90)"/>
  </g>
</svg>